<?xml version="1.0" encoding="UTF-8" standalone="no"?>
<!DOCTYPE svg PUBLIC "-//W3C//DTD SVG 1.1//EN" "http://www.w3.org/Graphics/SVG/1.1/DTD/svg11.dtd">
<svg width="100%" height="100%" viewBox="0 0 1200 675" version="1.1" xmlns="http://www.w3.org/2000/svg" xmlns:xlink="http://www.w3.org/1999/xlink" xml:space="preserve" xmlns:serif="http://www.serif.com/" style="fill-rule:evenodd;clip-rule:evenodd;stroke-linejoin:round;stroke-miterlimit:2;">
    <rect id="アートボード1" x="0" y="0" width="1200" height="675" style="fill:none;"/>
    <g id="アートボード11" serif:id="アートボード1">
        <g transform="matrix(0.83198,0,0,0.83198,163.557,210.602)">
            <path d="M447.601,194.684L469.322,194.684L440.522,296.978L420.118,296.978L407.765,237.156L404.157,217.377L400.548,237.156L388.195,296.978L368.347,296.978L339.338,194.684L362.031,194.684L375.564,253.257L378.479,269.565L381.463,253.604L392.983,194.684L415.538,194.684L427.683,253.257L430.806,269.565L433.929,253.881L447.601,194.684Z" style="fill:rgb(94,95,234);fill-rule:nonzero;"/>
            <path d="M476.854,229.522C482.082,222.86 491.057,219.529 503.781,219.529C512.062,219.529 519.419,221.171 525.849,224.456C532.28,227.741 535.496,233.94 535.496,243.055L535.496,277.754C535.496,280.16 535.542,283.075 535.635,286.499C535.774,289.09 536.167,290.848 536.815,291.773C537.462,292.698 538.434,293.462 539.729,294.063L539.729,296.978L518.216,296.978C517.614,295.451 517.198,294.017 516.966,292.675C516.735,291.334 516.55,289.807 516.411,288.095C513.682,291.056 510.535,293.577 506.973,295.659C502.716,298.112 497.905,299.338 492.538,299.338C485.691,299.338 480.034,297.383 475.57,293.473C471.105,289.564 468.873,284.024 468.873,276.852C468.873,267.553 472.458,260.821 479.63,256.657C483.562,254.39 489.346,252.771 496.979,251.799L503.711,250.966C507.366,250.504 509.98,249.925 511.553,249.231C514.375,248.028 515.787,246.155 515.787,243.61C515.787,240.51 514.711,238.37 512.56,237.191C510.408,236.011 507.251,235.421 503.087,235.421C498.414,235.421 495.106,236.578 493.162,238.891C491.775,240.603 490.849,242.916 490.387,245.831L471.302,245.831C471.718,239.215 473.569,233.779 476.854,229.522ZM491.566,282.682C493.417,284.209 495.684,284.972 498.367,284.972C502.624,284.972 506.545,283.723 510.131,281.224C513.716,278.726 515.578,274.169 515.717,267.553L515.717,260.196C514.468,260.983 513.207,261.619 511.935,262.105C510.663,262.591 508.916,263.042 506.695,263.458L502.254,264.291C498.09,265.031 495.106,265.933 493.301,266.998C490.248,268.802 488.721,271.601 488.721,275.395C488.721,278.772 489.669,281.201 491.566,282.682Z" style="fill:rgb(94,95,234);fill-rule:nonzero;"/>
            <path d="M554.478,229.522C559.706,222.86 568.682,219.529 581.405,219.529C589.687,219.529 597.043,221.171 603.474,224.456C609.905,227.741 613.12,233.94 613.12,243.055L613.12,277.754C613.12,280.16 613.167,283.075 613.259,286.499C613.398,289.09 613.791,290.848 614.439,291.773C615.087,292.698 616.058,293.462 617.354,294.063L617.354,296.978L595.84,296.978C595.238,295.451 594.822,294.017 594.591,292.675C594.359,291.334 594.174,289.807 594.036,288.095C591.306,291.056 588.16,293.577 584.597,295.659C580.341,298.112 575.529,299.338 570.162,299.338C563.315,299.338 557.659,297.383 553.194,293.473C548.729,289.564 546.497,284.024 546.497,276.852C546.497,267.553 550.083,260.821 557.254,256.657C561.187,254.39 566.97,252.771 574.604,251.799L581.336,250.966C584.991,250.504 587.605,249.925 589.178,249.231C592,248.028 593.411,246.155 593.411,243.61C593.411,240.51 592.335,238.37 590.184,237.191C588.033,236.011 584.875,235.421 580.711,235.421C576.038,235.421 572.73,236.578 570.787,238.891C569.399,240.603 568.474,242.916 568.011,245.831L548.926,245.831C549.342,239.215 551.193,233.779 554.478,229.522ZM569.191,282.682C571.041,284.209 573.308,284.972 575.992,284.972C580.248,284.972 584.169,283.723 587.755,281.224C591.341,278.726 593.203,274.169 593.342,267.553L593.342,260.196C592.092,260.983 590.832,261.619 589.559,262.105C588.287,262.591 586.54,263.042 584.32,263.458L579.878,264.291C575.714,265.031 572.73,265.933 570.926,266.998C567.872,268.802 566.345,271.601 566.345,275.395C566.345,278.772 567.294,281.201 569.191,282.682Z" style="fill:rgb(94,95,234);fill-rule:nonzero;"/>
            <path d="M667.982,282.196C673.025,282.196 677.119,281.641 680.265,280.53C686.234,278.402 689.218,274.446 689.218,268.663C689.218,265.286 687.737,262.672 684.776,260.821C681.815,259.017 677.166,257.421 670.827,256.033L660.001,253.604C649.36,251.198 642.003,248.584 637.932,245.761C631.038,241.042 627.591,233.663 627.591,223.623C627.591,214.462 630.923,206.852 637.585,200.791C644.247,194.73 654.033,191.7 666.941,191.7C677.721,191.7 686.916,194.556 694.527,200.27C702.138,205.984 706.128,214.277 706.498,225.15L685.956,225.15C685.586,218.997 682.903,214.624 677.906,212.033C674.575,210.322 670.434,209.466 665.483,209.466C659.978,209.466 655.582,210.576 652.298,212.797C649.013,215.018 647.37,218.117 647.37,222.096C647.37,225.751 648.99,228.481 652.228,230.285C654.31,231.488 658.752,232.899 665.553,234.519L683.18,238.752C690.907,240.603 696.736,243.078 700.669,246.178C706.776,250.99 709.829,257.953 709.829,267.067C709.829,276.413 706.255,284.174 699.107,290.35C691.959,296.527 681.862,299.615 668.815,299.615C655.49,299.615 645.011,296.573 637.377,290.489C629.743,284.405 625.926,276.043 625.926,265.401L646.329,265.401C646.977,270.074 648.249,273.567 650.146,275.881C653.616,280.091 659.561,282.196 667.982,282.196Z" style="fill:rgb(94,95,234);fill-rule:nonzero;"/>
        </g>
        <g id="logo_c.svg" transform="matrix(10.1179,0,0,10.3078,600,240.83)">
            <g transform="matrix(1,0,0,1,-8,-8)">
                <path d="M13.433,3.551L2,3.551L2,2L3,2L3,1L14.433,1L14.433,2L13.433,2L13.433,3.551Z" style="fill:rgb(119,130,246);"/>
                <path d="M11,15L11,3L13,3L13,2L14,2L14,1L15,1L15,13L14,13L14,14L13,14L13,15L11,15Z" style="fill:rgb(90,54,216);"/>
                <path d="M4.495,13.334L2,13L1,13L1,12L2,12L2,11L4,11L4.495,13.334Z" style="fill:rgb(219,62,159);"/>
                <rect x="3" y="12" width="1.171" height="1.179" style="fill:rgb(90,54,216);"/>
                <path d="M1,9L1,3L12,3L12,15L2,15L2,13L4,13L4,10L3,10L3,9L1,9Z" style="fill:rgb(101,79,240);"/>
                <rect x="3" y="6" width="1" height="1" style="fill:rgb(225,227,255);"/>
                <path d="M5,8L3,8L3,7L4,7L4,6L5,6L5,8Z" style="fill:rgb(16,22,83);"/>
            </g>
        </g>
        <g transform="matrix(0.636931,0,0,0.636931,184.08,220.884)">
            <path d="M374.7,409.962L360.924,457.657L360.785,457.657L346.318,409.962L344.31,409.962L330.05,457.657L329.912,457.657L315.928,409.962L314.544,409.962L329.081,459.388L330.95,459.388L345.21,411.692L345.348,411.692L359.886,459.388L361.755,459.388L376.084,409.962L374.7,409.962Z" style="fill:rgb(94,95,234);fill-rule:nonzero;"/>
            <path d="M376.43,441.874L406.196,441.874C406.289,439.428 406.046,437.074 405.47,434.813C404.893,432.552 403.97,430.544 402.701,428.791C401.432,427.037 399.793,425.629 397.786,424.568C395.778,423.507 393.39,422.976 390.621,422.976C388.637,422.976 386.698,423.391 384.806,424.222C382.914,425.053 381.253,426.264 379.822,427.856C378.391,429.448 377.238,431.398 376.361,433.706C375.484,436.013 375.046,438.644 375.046,441.597C375.046,444.228 375.346,446.685 375.946,448.969C376.545,451.254 377.468,453.238 378.714,454.923C379.961,456.607 381.564,457.911 383.526,458.834C385.487,459.757 387.852,460.195 390.621,460.149C394.682,460.149 398.097,459.007 400.866,456.723C403.635,454.438 405.273,451.219 405.781,447.066L404.397,447.066C403.797,450.988 402.262,453.93 399.793,455.892C397.324,457.853 394.221,458.834 390.483,458.834C387.944,458.834 385.798,458.395 384.045,457.519C382.291,456.642 380.86,455.442 379.753,453.919C378.645,452.396 377.826,450.608 377.295,448.554C376.765,446.5 376.476,444.274 376.43,441.874ZM404.812,440.489L376.43,440.489C376.569,437.997 377.03,435.759 377.815,433.775C378.599,431.79 379.626,430.094 380.895,428.687C382.164,427.279 383.641,426.206 385.325,425.468C387.01,424.729 388.821,424.36 390.759,424.36C393.067,424.36 395.098,424.787 396.851,425.641C398.605,426.495 400.07,427.66 401.247,429.137C402.424,430.614 403.312,432.333 403.912,434.294C404.512,436.255 404.812,438.32 404.812,440.489Z" style="fill:rgb(94,95,234);fill-rule:nonzero;"/>
            <path d="M412.288,433.775L412.288,409.962L410.904,409.962L410.904,459.388L412.288,459.388L412.288,449.419L412.427,449.419C413.35,452.604 415.046,455.188 417.515,457.172C419.984,459.157 423.041,460.149 426.687,460.149C429.04,460.149 431.152,459.688 433.021,458.765C434.89,457.842 436.482,456.561 437.797,454.923C439.112,453.284 440.116,451.335 440.808,449.073C441.501,446.812 441.847,444.343 441.847,441.666C441.847,439.174 441.512,436.798 440.843,434.536C440.174,432.275 439.205,430.29 437.936,428.583C436.667,426.875 435.086,425.514 433.194,424.499C431.302,423.483 429.133,422.976 426.687,422.976C422.903,422.976 419.787,423.968 417.342,425.952C414.896,427.937 413.257,430.544 412.427,433.775L412.288,433.775ZM412.288,441.666C412.288,436.082 413.603,431.802 416.234,428.825C418.864,425.849 422.349,424.36 426.687,424.36C429.133,424.36 431.221,424.879 432.952,425.918C434.682,426.956 436.101,428.295 437.209,429.933C438.316,431.571 439.136,433.417 439.666,435.471C440.197,437.524 440.462,439.59 440.462,441.666C440.462,443.928 440.174,446.097 439.597,448.173C439.02,450.25 438.166,452.085 437.036,453.677C435.905,455.269 434.474,456.526 432.744,457.449C431.013,458.372 428.994,458.834 426.687,458.834C424.425,458.834 422.395,458.372 420.595,457.449C418.795,456.526 417.284,455.28 416.061,453.711C414.838,452.142 413.903,450.319 413.257,448.243C412.611,446.166 412.288,443.974 412.288,441.666Z" style="fill:rgb(94,95,234);fill-rule:nonzero;"/>
            <path d="M450.777,443.12L475.974,443.12L482.481,459.388L484.004,459.388L464.483,409.962L462.683,409.962L442.678,459.388L444.2,459.388L450.777,443.12ZM475.421,441.736L451.331,441.736L463.514,411.346L463.652,411.346L475.421,441.736Z" style="fill:rgb(94,95,234);fill-rule:nonzero;"/>
            <path d="M509.41,434.329L510.794,434.329C510.794,430.36 509.64,427.475 507.333,425.676C505.025,423.876 501.887,422.976 497.918,422.976C495.703,422.976 493.834,423.253 492.311,423.806C490.788,424.36 489.542,425.076 488.573,425.952C487.604,426.829 486.912,427.798 486.496,428.86C486.081,429.921 485.873,430.937 485.873,431.906C485.873,433.844 486.219,435.39 486.912,436.544C487.604,437.697 488.688,438.597 490.165,439.243C491.181,439.705 492.334,440.12 493.626,440.489C494.919,440.859 496.418,441.251 498.126,441.666C499.649,442.035 501.149,442.405 502.626,442.774C504.102,443.143 505.406,443.639 506.537,444.262C507.667,444.885 508.59,445.681 509.306,446.65C510.021,447.62 510.379,448.889 510.379,450.458C510.379,451.981 510.021,453.273 509.306,454.334C508.59,455.396 507.679,456.261 506.571,456.93C505.464,457.599 504.229,458.084 502.868,458.384C501.506,458.684 500.18,458.834 498.887,458.834C494.688,458.834 491.469,457.899 489.231,456.03C486.992,454.161 485.873,451.219 485.873,447.204L484.489,447.204C484.489,451.681 485.7,454.957 488.123,457.034C490.546,459.111 494.134,460.149 498.887,460.149C500.41,460.149 501.945,459.976 503.491,459.63C505.037,459.284 506.421,458.718 507.644,457.934C508.867,457.149 509.859,456.134 510.621,454.888C511.382,453.642 511.763,452.119 511.763,450.319C511.763,448.612 511.429,447.227 510.759,446.166C510.09,445.104 509.213,444.228 508.129,443.535C507.044,442.843 505.821,442.301 504.46,441.909C503.099,441.516 501.726,441.136 500.341,440.766C498.403,440.259 496.707,439.82 495.253,439.451C493.8,439.082 492.45,438.644 491.204,438.136C490.004,437.628 489.046,436.901 488.331,435.955C487.615,435.009 487.258,433.659 487.258,431.906C487.258,431.583 487.35,431.006 487.535,430.175C487.719,429.344 488.158,428.502 488.85,427.648C489.542,426.795 490.604,426.033 492.034,425.364C493.465,424.695 495.426,424.36 497.918,424.36C499.626,424.36 501.183,424.545 502.591,424.914C503.999,425.283 505.21,425.872 506.225,426.679C507.241,427.487 508.025,428.514 508.579,429.76C509.133,431.006 509.41,432.529 509.41,434.329Z" style="fill:rgb(94,95,234);fill-rule:nonzero;"/>
            <path d="M540.63,434.329L542.014,434.329C542.014,430.36 540.86,427.475 538.553,425.676C536.245,423.876 533.107,422.976 529.138,422.976C526.923,422.976 525.054,423.253 523.531,423.806C522.008,424.36 520.762,425.076 519.793,425.952C518.824,426.829 518.132,427.798 517.716,428.86C517.301,429.921 517.093,430.937 517.093,431.906C517.093,433.844 517.44,435.39 518.132,436.544C518.824,437.697 519.909,438.597 521.385,439.243C522.401,439.705 523.554,440.12 524.847,440.489C526.139,440.859 527.639,441.251 529.346,441.666C530.869,442.035 532.369,442.405 533.846,442.774C535.322,443.143 536.626,443.639 537.757,444.262C538.887,444.885 539.81,445.681 540.526,446.65C541.241,447.62 541.599,448.889 541.599,450.458C541.599,451.981 541.241,453.273 540.526,454.334C539.81,455.396 538.899,456.261 537.791,456.93C536.684,457.599 535.449,458.084 534.088,458.384C532.727,458.684 531.4,458.834 530.108,458.834C525.908,458.834 522.689,457.899 520.451,456.03C518.213,454.161 517.093,451.219 517.093,447.204L515.709,447.204C515.709,451.681 516.92,454.957 519.343,457.034C521.766,459.111 525.354,460.149 530.108,460.149C531.63,460.149 533.165,459.976 534.711,459.63C536.257,459.284 537.641,458.718 538.864,457.934C540.087,457.149 541.08,456.134 541.841,454.888C542.602,453.642 542.983,452.119 542.983,450.319C542.983,448.612 542.649,447.227 541.979,446.166C541.31,445.104 540.433,444.228 539.349,443.535C538.264,442.843 537.041,442.301 535.68,441.909C534.319,441.516 532.946,441.136 531.561,440.766C529.623,440.259 527.927,439.82 526.473,439.451C525.02,439.082 523.67,438.644 522.424,438.136C521.224,437.628 520.266,436.901 519.551,435.955C518.836,435.009 518.478,433.659 518.478,431.906C518.478,431.583 518.57,431.006 518.755,430.175C518.939,429.344 519.378,428.502 520.07,427.648C520.762,426.795 521.824,426.033 523.254,425.364C524.685,424.695 526.646,424.36 529.138,424.36C530.846,424.36 532.403,424.545 533.811,424.914C535.219,425.283 536.43,425.872 537.445,426.679C538.461,427.487 539.245,428.514 539.799,429.76C540.353,431.006 540.63,432.529 540.63,434.329Z" style="fill:rgb(94,95,234);fill-rule:nonzero;"/>
            <path d="M547.967,441.874L577.734,441.874C577.826,439.428 577.584,437.074 577.007,434.813C576.43,432.552 575.507,430.544 574.238,428.791C572.969,427.037 571.33,425.629 569.323,424.568C567.315,423.507 564.927,422.976 562.158,422.976C560.174,422.976 558.236,423.391 556.343,424.222C554.451,425.053 552.79,426.264 551.359,427.856C549.929,429.448 548.775,431.398 547.898,433.706C547.021,436.013 546.583,438.644 546.583,441.597C546.583,444.228 546.883,446.685 547.483,448.969C548.083,451.254 549.006,453.238 550.252,454.923C551.498,456.607 553.101,457.911 555.063,458.834C557.024,459.757 559.389,460.195 562.158,460.149C566.219,460.149 569.634,459.007 572.403,456.723C575.172,454.438 576.811,451.219 577.318,447.066L575.934,447.066C575.334,450.988 573.799,453.93 571.33,455.892C568.861,457.853 565.758,458.834 562.02,458.834C559.482,458.834 557.336,458.395 555.582,457.519C553.828,456.642 552.398,455.442 551.29,453.919C550.183,452.396 549.363,450.608 548.833,448.554C548.302,446.5 548.013,444.274 547.967,441.874ZM576.349,440.489L547.967,440.489C548.106,437.997 548.567,435.759 549.352,433.775C550.136,431.79 551.163,430.094 552.432,428.687C553.701,427.279 555.178,426.206 556.863,425.468C558.547,424.729 560.358,424.36 562.297,424.36C564.604,424.36 566.635,424.787 568.388,425.641C570.142,426.495 571.607,427.66 572.784,429.137C573.961,430.614 574.849,432.333 575.449,434.294C576.049,436.255 576.349,438.32 576.349,440.489Z" style="fill:rgb(94,95,234);fill-rule:nonzero;"/>
            <path d="M582.441,423.806L582.441,459.388L583.825,459.388L583.825,439.243C583.825,437.259 584.091,435.367 584.621,433.567C585.152,431.767 585.914,430.187 586.906,428.825C587.898,427.464 589.11,426.379 590.54,425.572C591.971,424.764 593.563,424.36 595.317,424.36C597.301,424.36 598.916,424.683 600.162,425.329C601.408,425.976 602.377,426.852 603.07,427.96C603.762,429.068 604.235,430.36 604.489,431.836C604.743,433.313 604.87,434.882 604.87,436.544L604.87,459.388L606.254,459.388L606.254,436.821C606.254,435.159 606.508,433.579 607.015,432.079C607.523,430.579 608.262,429.252 609.231,428.098C610.2,426.945 611.377,426.033 612.761,425.364C614.146,424.695 615.692,424.36 617.399,424.36C619.337,424.36 620.941,424.637 622.21,425.191C623.479,425.745 624.495,426.529 625.256,427.545C626.017,428.56 626.548,429.783 626.848,431.213C627.148,432.644 627.298,434.236 627.298,435.99L627.298,459.388L628.683,459.388L628.683,435.99C628.683,434.052 628.498,432.286 628.129,430.694C627.76,429.102 627.137,427.741 626.26,426.61C625.383,425.479 624.229,424.591 622.799,423.945C621.368,423.299 619.568,422.976 617.399,422.976C614.63,422.976 612.23,423.737 610.2,425.26C608.169,426.783 606.808,428.791 606.116,431.283L605.977,431.283C605.377,428.652 604.143,426.587 602.274,425.087C600.405,423.587 598.086,422.883 595.317,422.976C593.932,422.976 592.628,423.218 591.405,423.703C590.182,424.187 589.063,424.868 588.048,425.745C587.033,426.622 586.179,427.637 585.487,428.791C584.795,429.944 584.287,431.213 583.964,432.598L583.825,432.598L583.825,423.806L582.441,423.806Z" style="fill:rgb(94,95,234);fill-rule:nonzero;"/>
            <path d="M636.851,433.775L636.851,409.962L635.467,409.962L635.467,459.388L636.851,459.388L636.851,449.419L636.989,449.419C637.912,452.604 639.608,455.188 642.077,457.172C644.546,459.157 647.604,460.149 651.25,460.149C653.603,460.149 655.715,459.688 657.584,458.765C659.453,457.842 661.045,456.561 662.36,454.923C663.675,453.284 664.679,451.335 665.371,449.073C666.064,446.812 666.41,444.343 666.41,441.666C666.41,439.174 666.075,436.798 665.406,434.536C664.737,432.275 663.768,430.29 662.499,428.583C661.229,426.875 659.649,425.514 657.757,424.499C655.865,423.483 653.696,422.976 651.25,422.976C647.465,422.976 644.35,423.968 641.904,425.952C639.458,427.937 637.82,430.544 636.989,433.775L636.851,433.775ZM636.851,441.666C636.851,436.082 638.166,431.802 640.797,428.825C643.427,425.849 646.912,424.36 651.25,424.36C653.696,424.36 655.784,424.879 657.514,425.918C659.245,426.956 660.664,428.295 661.772,429.933C662.879,431.571 663.698,433.417 664.229,435.471C664.76,437.524 665.025,439.59 665.025,441.666C665.025,443.928 664.737,446.097 664.16,448.173C663.583,450.25 662.729,452.085 661.599,453.677C660.468,455.269 659.037,456.526 657.307,457.449C655.576,458.372 653.557,458.834 651.25,458.834C648.988,458.834 646.958,458.372 645.158,457.449C643.358,456.526 641.847,455.28 640.624,453.711C639.401,452.142 638.466,450.319 637.82,448.243C637.174,446.166 636.851,443.974 636.851,441.666Z" style="fill:rgb(94,95,234);fill-rule:nonzero;"/>
            <rect x="671.809" y="409.962" width="1.384" height="49.426" style="fill:rgb(94,95,234);fill-rule:nonzero;"/>
            <path d="M703.721,423.806L690.984,457.519L676.863,423.806L675.409,423.806L690.223,459.042L687.662,465.618C687.246,466.679 686.796,467.521 686.312,468.144C685.827,468.768 685.273,469.229 684.65,469.529C684.027,469.829 683.289,470.014 682.435,470.083C681.581,470.152 680.555,470.187 679.355,470.187L679.355,471.571C680.416,471.571 681.42,471.536 682.366,471.467C683.312,471.398 684.177,471.202 684.962,470.879C685.746,470.556 686.462,470.06 687.108,469.391C687.754,468.721 688.308,467.787 688.769,466.587L705.175,423.806L703.721,423.806Z" style="fill:rgb(94,95,234);fill-rule:nonzero;"/>
            <path d="M725.666,434.813L727.05,434.813C727.281,431.49 728.434,428.918 730.511,427.095C732.588,425.272 735.495,424.36 739.233,424.36C741.587,424.36 743.456,424.672 744.841,425.295C746.225,425.918 747.275,426.714 747.99,427.683C748.706,428.652 749.156,429.714 749.34,430.867C749.525,432.021 749.617,433.129 749.617,434.19C749.617,435.528 749.352,436.555 748.821,437.271C748.29,437.986 747.46,438.517 746.329,438.863C745.198,439.209 743.756,439.44 742.002,439.555C740.249,439.67 738.149,439.797 735.703,439.936C734.226,440.028 732.749,440.224 731.273,440.524C729.796,440.824 728.481,441.355 727.327,442.116C726.173,442.878 725.239,443.928 724.523,445.266C723.808,446.604 723.45,448.381 723.45,450.596C723.45,453.781 724.535,456.169 726.704,457.761C728.873,459.353 731.757,460.149 735.357,460.149C737.203,460.149 738.91,459.907 740.479,459.422C742.049,458.938 743.445,458.28 744.668,457.449C745.89,456.619 746.906,455.673 747.713,454.611C748.521,453.55 749.109,452.442 749.479,451.288L749.617,451.288L749.617,455.926C749.617,457.265 749.998,458.176 750.759,458.661C751.521,459.145 752.409,459.388 753.424,459.388L755.501,459.388L755.501,458.003C755.04,458.049 754.543,458.084 754.013,458.107C753.482,458.13 752.986,458.084 752.524,457.969C752.063,457.853 751.694,457.634 751.417,457.311C751.14,456.988 751.002,456.48 751.002,455.788L751.002,433.152C750.955,431.213 750.609,429.598 749.963,428.306C749.317,427.014 748.463,425.964 747.402,425.156C746.34,424.349 745.106,423.783 743.698,423.46C742.291,423.137 740.803,422.976 739.233,422.976C737.018,422.976 735.092,423.276 733.453,423.876C731.815,424.476 730.43,425.306 729.3,426.368C728.169,427.429 727.304,428.687 726.704,430.14C726.104,431.594 725.758,433.152 725.666,434.813ZM749.617,438.482L749.617,445.058C749.617,446.812 749.306,448.519 748.683,450.181C748.06,451.842 747.137,453.307 745.914,454.577C744.691,455.846 743.179,456.873 741.379,457.657C739.58,458.442 737.526,458.834 735.218,458.834C733.28,458.834 731.653,458.592 730.338,458.107C729.023,457.622 727.95,456.999 727.119,456.238C726.289,455.476 725.7,454.6 725.354,453.607C725.008,452.615 724.835,451.611 724.835,450.596C724.835,448.704 725.135,447.17 725.735,445.993C726.335,444.816 727.142,443.893 728.158,443.224C729.173,442.555 730.338,442.093 731.653,441.839C732.969,441.586 734.319,441.412 735.703,441.32C737.087,441.228 738.507,441.159 739.96,441.113C741.414,441.066 742.764,440.951 744.01,440.766C745.256,440.582 746.364,440.316 747.333,439.97C748.302,439.624 749.017,439.128 749.479,438.482L749.617,438.482Z" style="fill:rgb(94,95,234);fill-rule:nonzero;"/>
            <path d="M781.391,434.329L782.775,434.329C782.775,430.36 781.622,427.475 779.314,425.676C777.007,423.876 773.869,422.976 769.9,422.976C767.685,422.976 765.815,423.253 764.293,423.806C762.77,424.36 761.524,425.076 760.554,425.952C759.585,426.829 758.893,427.798 758.478,428.86C758.062,429.921 757.855,430.937 757.855,431.906C757.855,433.844 758.201,435.39 758.893,436.544C759.585,437.697 760.67,438.597 762.147,439.243C763.162,439.705 764.316,440.12 765.608,440.489C766.9,440.859 768.4,441.251 770.107,441.666C771.63,442.035 773.13,442.405 774.607,442.774C776.084,443.143 777.387,443.639 778.518,444.262C779.649,444.885 780.572,445.681 781.287,446.65C782.002,447.62 782.36,448.889 782.36,450.458C782.36,451.981 782.002,453.273 781.287,454.334C780.572,455.396 779.66,456.261 778.553,456.93C777.445,457.599 776.211,458.084 774.849,458.384C773.488,458.684 772.161,458.834 770.869,458.834C766.669,458.834 763.45,457.899 761.212,456.03C758.974,454.161 757.855,451.219 757.855,447.204L756.47,447.204C756.47,451.681 757.682,454.957 760.104,457.034C762.527,459.111 766.115,460.149 770.869,460.149C772.392,460.149 773.926,459.976 775.472,459.63C777.018,459.284 778.403,458.718 779.626,457.934C780.849,457.149 781.841,456.134 782.602,454.888C783.364,453.642 783.745,452.119 783.745,450.319C783.745,448.612 783.41,447.227 782.741,446.166C782.072,445.104 781.195,444.228 780.11,443.535C779.026,442.843 777.803,442.301 776.441,441.909C775.08,441.516 773.707,441.136 772.323,440.766C770.384,440.259 768.688,439.82 767.235,439.451C765.781,439.082 764.431,438.644 763.185,438.136C761.985,437.628 761.027,436.901 760.312,435.955C759.597,435.009 759.239,433.659 759.239,431.906C759.239,431.583 759.331,431.006 759.516,430.175C759.701,429.344 760.139,428.502 760.831,427.648C761.524,426.795 762.585,426.033 764.016,425.364C765.446,424.695 767.408,424.36 769.9,424.36C771.607,424.36 773.165,424.545 774.572,424.914C775.98,425.283 777.191,425.872 778.207,426.679C779.222,427.487 780.006,428.514 780.56,429.76C781.114,431.006 781.391,432.529 781.391,434.329Z" style="fill:rgb(94,95,234);fill-rule:nonzero;"/>
            <path d="M807.765,434.813L809.15,434.813C809.38,431.49 810.534,428.918 812.611,427.095C814.688,425.272 817.595,424.36 821.333,424.36C823.687,424.36 825.556,424.672 826.94,425.295C828.325,425.918 829.375,426.714 830.09,427.683C830.805,428.652 831.255,429.714 831.44,430.867C831.624,432.021 831.717,433.129 831.717,434.19C831.717,435.528 831.451,436.555 830.921,437.271C830.39,437.986 829.559,438.517 828.429,438.863C827.298,439.209 825.856,439.44 824.102,439.555C822.348,439.67 820.249,439.797 817.803,439.936C816.326,440.028 814.849,440.224 813.372,440.524C811.896,440.824 810.58,441.355 809.427,442.116C808.273,442.878 807.338,443.928 806.623,445.266C805.908,446.604 805.55,448.381 805.55,450.596C805.55,453.781 806.635,456.169 808.804,457.761C810.973,459.353 813.857,460.149 817.457,460.149C819.303,460.149 821.01,459.907 822.579,459.422C824.148,458.938 825.544,458.28 826.767,457.449C827.99,456.619 829.006,455.673 829.813,454.611C830.621,453.55 831.209,452.442 831.578,451.288L831.717,451.288L831.717,455.926C831.717,457.265 832.098,458.176 832.859,458.661C833.62,459.145 834.509,459.388 835.524,459.388L837.601,459.388L837.601,458.003C837.139,458.049 836.643,458.084 836.113,458.107C835.582,458.13 835.086,458.084 834.624,457.969C834.163,457.853 833.794,457.634 833.517,457.311C833.24,456.988 833.101,456.48 833.101,455.788L833.101,433.152C833.055,431.213 832.709,429.598 832.063,428.306C831.417,427.014 830.563,425.964 829.502,425.156C828.44,424.349 827.206,423.783 825.798,423.46C824.391,423.137 822.902,422.976 821.333,422.976C819.118,422.976 817.191,423.276 815.553,423.876C813.915,424.476 812.53,425.306 811.4,426.368C810.269,427.429 809.404,428.687 808.804,430.14C808.204,431.594 807.858,433.152 807.765,434.813ZM831.717,438.482L831.717,445.058C831.717,446.812 831.405,448.519 830.782,450.181C830.159,451.842 829.236,453.307 828.013,454.577C826.79,455.846 825.279,456.873 823.479,457.657C821.679,458.442 819.626,458.834 817.318,458.834C815.38,458.834 813.753,458.592 812.438,458.107C811.123,457.622 810.05,456.999 809.219,456.238C808.388,455.476 807.8,454.6 807.454,453.607C807.108,452.615 806.935,451.611 806.935,450.596C806.935,448.704 807.235,447.17 807.834,445.993C808.434,444.816 809.242,443.893 810.257,443.224C811.273,442.555 812.438,442.093 813.753,441.839C815.068,441.586 816.418,441.412 817.803,441.32C819.187,441.228 820.606,441.159 822.06,441.113C823.514,441.066 824.864,440.951 826.11,440.766C827.356,440.582 828.463,440.316 829.432,439.97C830.402,439.624 831.117,439.128 831.578,438.482L831.717,438.482Z" style="fill:rgb(94,95,234);fill-rule:nonzero;"/>
            <path d="M891.665,423.806L893.049,423.806C892.911,421.038 892.38,418.695 891.457,416.78C890.534,414.865 889.3,413.319 887.754,412.142C886.208,410.965 884.408,410.112 882.354,409.581C880.301,409.05 878.051,408.785 875.605,408.785C873.62,408.785 871.624,408.993 869.617,409.408C867.609,409.823 865.798,410.515 864.183,411.485C862.568,412.454 861.252,413.757 860.237,415.396C859.222,417.034 858.714,419.076 858.714,421.522C858.714,423.922 859.199,425.872 860.168,427.372C861.137,428.871 862.418,430.071 864.01,430.971C865.602,431.871 867.39,432.575 869.375,433.083C871.359,433.59 873.344,434.075 875.328,434.536C877.22,434.998 879.193,435.448 881.247,435.886C883.3,436.325 885.169,436.971 886.854,437.824C888.538,438.678 889.923,439.832 891.007,441.286C892.092,442.739 892.634,444.712 892.634,447.204C892.634,449.327 892.161,451.15 891.215,452.673C890.269,454.196 889.034,455.442 887.511,456.411C885.988,457.38 884.269,458.084 882.354,458.522C880.439,458.961 878.512,459.18 876.574,459.18C873.943,459.18 871.532,458.892 869.34,458.315C867.148,457.738 865.256,456.803 863.664,455.511C862.072,454.219 860.837,452.546 859.96,450.492C859.083,448.439 858.645,445.935 858.645,442.982L857.26,442.982C857.214,446.12 857.664,448.796 858.61,451.012C859.556,453.227 860.895,455.038 862.625,456.446C864.356,457.853 866.41,458.88 868.786,459.526C871.163,460.172 873.759,460.495 876.574,460.495C878.697,460.495 880.797,460.253 882.873,459.768C884.95,459.284 886.819,458.499 888.481,457.415C890.142,456.33 891.48,454.957 892.496,453.296C893.511,451.635 894.018,449.627 894.018,447.273C894.018,444.689 893.568,442.635 892.669,441.113C891.769,439.59 890.557,438.367 889.034,437.444C887.511,436.521 885.723,435.782 883.669,435.228C881.616,434.675 879.435,434.098 877.128,433.498C875.005,432.99 872.928,432.506 870.898,432.044C868.867,431.583 867.056,430.937 865.464,430.106C863.871,429.275 862.579,428.191 861.587,426.852C860.595,425.514 860.099,423.737 860.099,421.522C860.099,419.307 860.583,417.472 861.552,416.019C862.522,414.565 863.756,413.4 865.256,412.523C866.756,411.646 868.429,411.035 870.275,410.689C872.121,410.342 873.897,410.169 875.605,410.169C877.82,410.169 879.897,410.4 881.835,410.862C883.773,411.323 885.446,412.096 886.854,413.181C888.261,414.265 889.392,415.673 890.246,417.403C891.1,419.134 891.573,421.268 891.665,423.806Z" style="fill:rgb(94,95,234);fill-rule:nonzero;"/>
            <path d="M928.838,447.273L927.454,447.273C927.315,449.073 926.877,450.677 926.138,452.085C925.4,453.492 924.442,454.703 923.266,455.719C922.089,456.734 920.739,457.507 919.216,458.038C917.693,458.569 916.055,458.834 914.301,458.834C911.947,458.834 909.871,458.384 908.071,457.484C906.271,456.584 904.771,455.373 903.571,453.85C902.371,452.327 901.46,450.573 900.837,448.589C900.214,446.604 899.902,444.528 899.902,442.359C899.902,440.282 900.168,438.17 900.699,436.025C901.229,433.879 902.083,431.94 903.26,430.21C904.437,428.479 906.006,427.072 907.967,425.987C909.928,424.903 912.317,424.36 915.132,424.36C916.609,424.36 918.016,424.568 919.354,424.983C920.693,425.399 921.893,426.033 922.954,426.887C924.016,427.741 924.915,428.802 925.654,430.071C926.392,431.34 926.9,432.852 927.177,434.605L928.561,434.605C928.331,432.713 927.811,431.04 927.004,429.587C926.196,428.133 925.192,426.922 923.992,425.952C922.793,424.983 921.431,424.245 919.908,423.737C918.385,423.23 916.793,422.976 915.132,422.976C912.317,422.976 909.859,423.507 907.759,424.568C905.66,425.629 903.929,427.048 902.568,428.825C901.206,430.602 900.191,432.656 899.522,434.986C898.853,437.317 898.518,439.774 898.518,442.359C898.518,444.804 898.864,447.1 899.556,449.246C900.249,451.392 901.264,453.273 902.602,454.888C903.941,456.503 905.59,457.784 907.552,458.73C909.513,459.676 911.763,460.149 914.301,460.149C916.332,460.149 918.189,459.849 919.874,459.249C921.558,458.649 923.035,457.796 924.304,456.688C925.573,455.58 926.6,454.23 927.384,452.638C928.169,451.046 928.654,449.258 928.838,447.273Z" style="fill:rgb(94,95,234);fill-rule:nonzero;"/>
            <path d="M935.345,459.388L935.345,439.243C935.345,437.305 935.622,435.413 936.176,433.567C936.73,431.721 937.583,430.094 938.737,428.687C939.891,427.279 941.356,426.172 943.133,425.364C944.91,424.556 947.021,424.222 949.467,424.36L949.467,422.976C947.344,422.93 945.487,423.16 943.894,423.668C942.302,424.176 940.929,424.868 939.776,425.745C938.622,426.622 937.699,427.648 937.007,428.825C936.314,430.002 935.807,431.26 935.484,432.598L935.345,432.598L935.345,423.806L933.961,423.806L933.961,459.388L935.345,459.388Z" style="fill:rgb(94,95,234);fill-rule:nonzero;"/>
            <path d="M952.444,416.953L952.444,409.962L951.059,409.962L951.059,416.953L952.444,416.953ZM952.444,459.388L952.444,423.806L951.059,423.806L951.059,459.388L952.444,459.388Z" style="fill:rgb(94,95,234);fill-rule:nonzero;"/>
            <path d="M960.612,471.571L960.612,449.419L960.75,449.419C961.581,452.65 963.219,455.246 965.665,457.207C968.111,459.168 971.226,460.149 975.011,460.149C977.457,460.149 979.626,459.653 981.518,458.661C983.41,457.669 984.99,456.319 986.26,454.611C987.529,452.904 988.498,450.919 989.167,448.658C989.836,446.397 990.171,444.02 990.171,441.528C990.171,438.851 989.825,436.382 989.132,434.121C988.44,431.86 987.436,429.898 986.121,428.237C984.806,426.575 983.214,425.283 981.345,424.36C979.476,423.437 977.364,422.976 975.011,422.976C973.211,422.976 971.538,423.241 969.992,423.772C968.446,424.303 967.073,425.053 965.873,426.022C964.673,426.991 963.635,428.133 962.758,429.448C961.881,430.764 961.212,432.206 960.75,433.775L960.612,433.775L960.612,423.806L959.228,423.806L959.228,471.571L960.612,471.571ZM975.011,458.834C970.673,458.834 967.188,457.346 964.558,454.369C961.927,451.392 960.612,447.112 960.612,441.528C960.612,439.22 960.935,437.028 961.581,434.952C962.227,432.875 963.162,431.052 964.385,429.483C965.608,427.914 967.119,426.668 968.919,425.745C970.719,424.822 972.749,424.36 975.011,424.36C977.318,424.36 979.337,424.822 981.068,425.745C982.798,426.668 984.229,427.925 985.36,429.517C986.49,431.11 987.344,432.933 987.921,434.986C988.498,437.04 988.786,439.22 988.786,441.528C988.786,443.605 988.521,445.67 987.99,447.723C987.459,449.777 986.64,451.623 985.533,453.261C984.425,454.9 983.006,456.238 981.275,457.276C979.545,458.315 977.457,458.834 975.011,458.834Z" style="fill:rgb(94,95,234);fill-rule:nonzero;"/>
            <path d="M999.377,425.191L1007.41,425.191L1007.41,423.806L999.377,423.806L999.377,412.592L997.993,412.592L997.993,423.806L991.486,423.806L991.486,425.191L997.993,425.191L997.993,452.742C997.993,455.28 998.558,457.022 999.689,457.969C1000.82,458.915 1002.19,459.388 1003.81,459.388C1004.87,459.388 1005.6,459.365 1005.99,459.318C1006.38,459.272 1006.78,459.226 1007.2,459.18L1007.2,457.796C1006.97,457.888 1006.58,457.945 1006.02,457.969C1005.47,457.992 1004.85,458.003 1004.15,458.003C1003.6,458.003 1003.05,457.969 1002.49,457.899C1001.94,457.83 1001.43,457.611 1000.97,457.242C1000.51,456.873 1000.13,456.319 999.827,455.58C999.527,454.842 999.377,453.804 999.377,452.465L999.377,425.191Z" style="fill:rgb(94,95,234);fill-rule:nonzero;"/>
        </g>
    </g>
</svg>
